<svg width="177" height="19" viewBox="0 0 177 19" fill="none" xmlns="http://www.w3.org/2000/svg">
<path d="M176.182 8.09547C174.496 7.19708 172.821 6.3089 171.135 5.42071C168.478 4.00165 165.821 2.59281 163.164 1.18396C162.556 0.857275 161.948 0.530586 161.329 0.203897C160.219 -0.378017 158.811 0.346823 158.811 1.60253C158.811 3.38911 158.811 5.16549 158.811 6.94185C158.811 7.25834 158.811 7.56461 158.811 7.87088C158.789 7.87088 158.779 7.87088 158.757 7.87088C157.21 7.87088 118.294 7.87088 117.302 7.87088C117.099 7.11541 116.779 6.38036 116.299 5.75761C115.435 4.60399 114.325 3.77706 112.938 3.28702C110.409 2.36821 107.272 3.18493 105.554 5.20632C104.871 6.01283 104.391 6.90102 104.134 7.87088C102.427 7.87088 98.2656 7.87088 97.8921 7.87088C97.6894 7.1052 97.3586 6.38036 96.8891 5.75761C96.0248 4.60399 94.915 3.77706 93.5279 3.28702C90.9883 2.36821 87.8618 3.18493 86.1438 5.20632C85.4609 6.01283 84.9807 6.90102 84.7139 7.87088C84.2551 7.87088 80.0936 7.87088 78.4823 7.87088C78.2902 7.11541 77.9595 6.38036 77.4793 5.75761C76.615 4.60399 75.5052 3.77706 74.118 3.28702C71.5891 2.36821 68.4519 3.18493 66.734 5.20632C66.0511 6.01283 65.5709 6.90102 65.3148 7.87088C63.9169 7.87088 59.7554 7.86067 59.0725 7.86067C58.8697 7.1052 58.5496 6.38036 58.0801 5.75761C57.2051 4.60399 56.0954 3.77706 54.7189 3.28702C52.1793 2.36821 49.0421 3.18493 47.3242 5.20632C46.6412 6.01283 46.1611 6.90102 45.905 7.87088C44.7419 7.87088 40.5803 7.87088 39.6627 7.87088C39.4706 7.11541 39.1398 6.38036 38.6703 5.75761C37.7953 4.60399 36.6856 3.77706 35.309 3.28702C32.7694 2.36821 29.6323 3.18493 27.9143 5.20632C27.2314 6.01283 26.7619 6.90102 26.4951 7.87088C25.4921 7.87088 1.29118 7.88219 3.38667e-05 7.88219C3.38667e-05 7.88219 3.38667e-05 8.07918 3.38667e-05 8.69171C3.38667e-05 8.07918 3.38667e-05 8.69171 3.38667e-05 9.04492C3.38667e-05 9.84374 3.38667e-05 9.49411 3.38667e-05 9.49411C3.38667e-05 10.1169 3.38667e-05 10.1169 3.38667e-05 10.1169C0 10.4435 0 10.7702 0 10.809C0 10.809 3.38667e-05 10.1169 0 10.7702C0 10.8808 0.00637359 10.7668 3.97282e-05 11.1173C7.55487e-05 10.9003 7.78696e-05 10.8863 3.97282e-05 11.1173C0.000611586 11.085 8.00569e-05 10.873 3.97282e-05 11.1173C0.917713 11.1173 24.8732 11.1173 26.4738 11.1173C26.6339 11.7401 26.9006 12.3322 27.2314 12.8733C27.9143 13.9555 28.928 14.8947 30.1231 15.4153C31.521 16.0381 33.0042 16.2116 34.5194 15.9156C37.059 15.4358 39.0117 13.4654 39.652 11.1173C40.1962 11.1173 45.7022 11.1173 45.8836 11.1173C46.0543 11.7401 46.3104 12.3322 46.6412 12.8733C47.3242 13.9555 48.3485 14.8845 49.5436 15.4153C50.9415 16.0279 52.414 16.2014 53.9292 15.9156C56.4689 15.4358 58.4216 13.4654 59.0618 11.1071C59.5313 11.1071 63.6822 11.1071 65.2934 11.1071C65.4642 11.7299 65.7203 12.3322 66.0617 12.8733C66.734 13.9555 67.7583 14.8845 68.9535 15.4153C70.3513 16.0279 71.8239 16.2014 73.3391 15.9156C75.8787 15.4358 77.8314 13.4654 78.4716 11.1071C79.8695 11.1071 84.031 11.1173 84.7139 11.1173C84.874 11.7401 85.1301 12.3322 85.4715 12.8733C86.1438 13.9555 87.1682 14.8845 88.3633 15.4153C89.7611 16.0279 91.2337 16.2014 92.7489 15.9156C95.2885 15.4358 97.2412 13.4654 97.8815 11.1071C97.9775 11.1071 103.686 11.1071 104.124 11.1071C104.284 11.7299 104.54 12.3322 104.881 12.8733C105.554 13.9555 106.578 14.8845 107.773 15.4153C109.171 16.0279 110.654 16.2014 112.159 15.9156C114.698 15.4358 116.651 13.4654 117.302 11.1071C117.569 11.1071 158.512 11.1071 158.821 11.1173C158.821 12.5568 158.821 14.0065 158.821 15.446C158.821 16.0891 158.821 16.7323 158.821 17.3755C158.821 17.3857 158.821 17.3959 158.821 17.4061C158.811 17.6818 158.885 17.9574 159.045 18.2024C159.088 18.2739 159.141 18.3351 159.195 18.3964C159.216 18.4066 159.227 18.427 159.237 18.4372C159.248 18.4474 159.248 18.4576 159.259 18.4576C159.568 18.7945 160.016 19.0191 160.497 18.9987C160.561 18.9987 160.635 18.9885 160.699 18.9783C160.923 18.9579 161.137 18.8864 161.34 18.7741C163.025 17.8859 164.701 16.9977 166.387 16.0994C169.044 14.6905 171.701 13.2714 174.358 11.8626C174.977 11.5359 175.585 11.2092 176.193 10.8927C177.271 10.3108 177.271 8.67739 176.182 8.09547ZM55.6792 10.7702C55.5725 10.9948 55.4551 11.2092 55.3058 11.4134C55.2738 11.4542 55.2524 11.4951 55.2204 11.5359C55.1244 11.638 55.0283 11.7503 54.9216 11.8524C54.8149 11.9443 54.7189 12.0362 54.6015 12.128C54.5588 12.1587 54.5161 12.1893 54.4734 12.2199C54.26 12.3628 54.036 12.4751 53.8012 12.5772C53.5238 12.6793 53.2463 12.7508 52.9476 12.8018C52.6381 12.8325 52.3287 12.8325 52.0192 12.8018C51.7311 12.7508 51.443 12.6793 51.1656 12.5772C50.9415 12.4751 50.7067 12.3628 50.4933 12.2199C50.4506 12.1995 50.408 12.1689 50.3759 12.1382C50.2586 12.0464 50.1519 11.9545 50.0452 11.8524C49.9491 11.7503 49.8531 11.6482 49.757 11.5461C49.725 11.5053 49.693 11.4645 49.661 11.4236C49.5223 11.2092 49.3942 10.9948 49.2875 10.7702C49.1915 10.5048 49.1168 10.2292 49.0635 9.95352C49.0314 9.64725 49.0314 9.35118 49.0635 9.04491C49.1168 8.76927 49.1915 8.49363 49.2875 8.22819C49.3942 8.00359 49.5223 7.779 49.661 7.57481C49.693 7.54419 49.7144 7.50335 49.7464 7.46251C49.8531 7.35021 49.9384 7.24813 50.0452 7.14604C50.1519 7.04395 50.2586 6.95206 50.3653 6.87039C50.408 6.83977 50.4506 6.80914 50.4933 6.77851C50.7067 6.63559 50.9308 6.52329 51.1656 6.41099C51.443 6.3191 51.7311 6.23743 52.0192 6.1966C52.3287 6.16597 52.6381 6.16597 52.9476 6.1966C53.2463 6.23743 53.5238 6.3191 53.8012 6.41099C54.036 6.52329 54.26 6.63559 54.4734 6.77851C54.5161 6.79893 54.5588 6.82956 54.6015 6.86018C54.7082 6.95206 54.8149 7.04395 54.9216 7.14604C55.0283 7.23792 55.1244 7.34001 55.2204 7.45231C55.2524 7.49314 55.2738 7.53398 55.3058 7.57481C55.4551 7.779 55.5725 8.00359 55.6792 8.22819C55.7859 8.49363 55.8606 8.76927 55.914 9.05512C55.9247 9.17763 55.9353 9.31035 55.9353 9.44307C55.9353 9.46348 55.9353 9.4839 55.9353 9.50432C55.9353 9.64725 55.9247 9.80038 55.914 9.94331C55.8606 10.2292 55.7753 10.4946 55.6792 10.7702ZM94.7336 9.94331C94.6803 10.219 94.5949 10.4946 94.4989 10.7702C94.3922 10.9948 94.2748 11.2092 94.1254 11.4134C94.0934 11.4542 94.0721 11.4951 94.0401 11.5359C93.944 11.638 93.848 11.7503 93.7413 11.8524C93.6346 11.9443 93.5385 12.0362 93.4212 12.128C93.3785 12.1587 93.3358 12.1893 93.2931 12.2199C93.0797 12.3628 92.8556 12.4751 92.6209 12.5772C92.3434 12.6793 92.066 12.7508 91.7672 12.8018C91.4578 12.8325 91.1483 12.8325 90.8389 12.8018C90.5508 12.7508 90.2627 12.6793 89.9852 12.5772C89.7611 12.4751 89.5264 12.3628 89.3236 12.2199C89.281 12.1995 89.2383 12.1689 89.1956 12.1382C89.0889 12.0464 88.9715 11.9545 88.8648 11.8524C88.7688 11.7503 88.6727 11.6482 88.5767 11.5461C88.5447 11.5053 88.5127 11.4645 88.4807 11.4236C88.3419 11.2092 88.2246 10.9948 88.1179 10.7702C88.0112 10.5048 87.9365 10.2292 87.8831 9.95352C87.8511 9.64725 87.8511 9.35118 87.8831 9.04491C87.9365 8.76927 88.0112 8.49363 88.1179 8.22819C88.2246 8.00359 88.3419 7.779 88.4807 7.57481C88.5127 7.54419 88.5447 7.50335 88.566 7.46251C88.6621 7.35021 88.7581 7.24813 88.8648 7.14604C88.9715 7.04395 89.0782 6.95206 89.1849 6.87039C89.2276 6.83977 89.2703 6.80914 89.313 6.77851C89.5264 6.63559 89.7505 6.52329 89.9852 6.41099C90.2627 6.3191 90.5401 6.23743 90.8389 6.1966C91.1483 6.16597 91.4578 6.16597 91.7672 6.1966C92.0553 6.23743 92.3434 6.3191 92.6209 6.41099C92.8556 6.52329 93.0797 6.63559 93.2931 6.77851C93.3358 6.79893 93.3785 6.82956 93.4105 6.86018C93.5279 6.95206 93.6346 7.04395 93.7413 7.14604C93.8373 7.23792 93.9333 7.34001 94.0294 7.45231C94.0614 7.49314 94.0934 7.53398 94.1254 7.57481C94.2748 7.779 94.3922 8.00359 94.4989 8.22819C94.5949 8.49363 94.6803 8.76927 94.7336 9.05512C94.7443 9.17763 94.7443 9.31035 94.755 9.44307C94.755 9.46348 94.755 9.4839 94.755 9.49411C94.7443 9.64724 94.7443 9.79017 94.7336 9.94331ZM169.449 10.7702C167.016 12.0668 164.583 13.3531 162.161 14.6395C162.161 13.7717 162.161 12.9141 162.161 12.0464C162.161 9.4839 162.161 6.91123 162.161 4.34876C162.993 4.79796 163.836 5.23694 164.679 5.68614C167.07 6.95206 169.46 8.22819 171.85 9.50432C171.05 9.92289 170.249 10.3415 169.449 10.7702Z" fill="#F5F5F5"/>
</svg>
