<svg width="82" height="68" viewBox="0 0 82 68" fill="none" xmlns="http://www.w3.org/2000/svg">
<path d="M32.8 0H73.8C78.3228 0 82 3.81172 82 8.5V38.25C82 42.9383 78.3228 46.75 73.8 46.75H32.8C28.2772 46.75 24.6 42.9383 24.6 38.25V8.5C24.6 3.81172 28.2772 0 32.8 0ZM60.9875 14.1711C60.4109 13.2812 59.45 12.75 58.425 12.75C57.4 12.75 56.4391 13.2812 55.8625 14.1711L48.6875 25.3273L46.4709 22.4453C45.8816 21.6883 44.9975 21.25 44.075 21.25C43.1525 21.25 42.2556 21.6883 41.6791 22.4453L33.4791 33.0703C32.7359 34.0266 32.595 35.3414 33.1075 36.4437C33.62 37.5461 34.6963 38.25 35.875 38.25H46.125H52.275H70.725C71.8653 38.25 72.9031 37.5992 73.4413 36.5633C73.9794 35.5273 73.9153 34.2656 73.2875 33.2961L60.9875 14.1711ZM43.05 12.75C43.05 10.3992 41.2178 8.5 38.95 8.5C36.6822 8.5 34.85 10.3992 34.85 12.75C34.85 15.1008 36.6822 17 38.95 17C41.2178 17 43.05 15.1008 43.05 12.75ZM8.2 17H20.5V51V55.25C20.5 57.6008 22.3322 59.5 24.6 59.5H41C43.2678 59.5 45.1 57.6008 45.1 55.25V51H65.6V59.5C65.6 64.1883 61.9228 68 57.4 68H8.2C3.67719 68 0 64.1883 0 59.5V25.5C0 20.8117 3.67719 17 8.2 17ZM9.225 25.5C8.0975 25.5 7.175 26.4562 7.175 27.625V29.75C7.175 30.9188 8.0975 31.875 9.225 31.875H11.275C12.4025 31.875 13.325 30.9188 13.325 29.75V27.625C13.325 26.4562 12.4025 25.5 11.275 25.5H9.225ZM9.225 39.3125C8.0975 39.3125 7.175 40.2687 7.175 41.4375V43.5625C7.175 44.7313 8.0975 45.6875 9.225 45.6875H11.275C12.4025 45.6875 13.325 44.7313 13.325 43.5625V41.4375C13.325 40.2687 12.4025 39.3125 11.275 39.3125H9.225ZM9.225 53.125C8.0975 53.125 7.175 54.0812 7.175 55.25V57.375C7.175 58.5438 8.0975 59.5 9.225 59.5H11.275C12.4025 59.5 13.325 58.5438 13.325 57.375V55.25C13.325 54.0812 12.4025 53.125 11.275 53.125H9.225ZM52.275 55.25V57.375C52.275 58.5438 53.1975 59.5 54.325 59.5H56.375C57.5025 59.5 58.425 58.5438 58.425 57.375V55.25C58.425 54.0812 57.5025 53.125 56.375 53.125H54.325C53.1975 53.125 52.275 54.0812 52.275 55.25Z" fill="#F5F5F5"/>
</svg>
