<svg width="103" height="70" viewBox="0 0 103 70" fill="none" xmlns="http://www.w3.org/2000/svg">
<path d="M92.7 60.62C95.7643 59.1912 97.85 56.5641 97.85 53.5294V8.23529C97.85 3.69353 93.2305 0 87.55 0H15.45C9.76955 0 5.15 3.69353 5.15 8.23529V53.5294C5.15 56.56 7.23575 59.1912 10.3 60.62V61.7647H0V70H103V61.7647H92.7V60.62ZM15.45 53.5294V8.23529H87.55L87.5603 53.5294H15.45Z" fill="#F5F5F5"/>
<g clip-path="url(#clip0_15_52)">
<path d="M52.5 26.5C52.5 29.5379 49.8141 32 46.5 32C43.1859 32 40.5 29.5379 40.5 26.5C40.5 23.4621 43.1859 21 46.5 21C49.8141 21 52.5 23.4621 52.5 26.5ZM36 41.7238C36 37.4914 39.7406 34.0625 44.3578 34.0625H48.6422C53.2594 34.0625 57 37.4914 57 41.7238C57 42.4285 56.3766 43 55.6078 43H37.3922C36.6234 43 36 42.4285 36 41.7238ZM64.5609 43H58.0969C58.35 42.5961 58.5 42.1277 58.5 41.625V41.2812C58.5 38.673 57.2297 36.3313 55.2281 34.7586C55.3406 34.7543 55.4484 34.75 55.5609 34.75H58.4391C62.6156 34.75 66 37.8523 66 41.6809C66 42.4113 65.3531 43 64.5609 43ZM56.25 32C54.7969 32 53.4844 31.4586 52.5328 30.5863C53.4563 29.4434 54 28.0297 54 26.5C54 25.3484 53.6906 24.2613 53.1422 23.3074C54.0141 22.723 55.0875 22.375 56.25 22.375C59.1516 22.375 61.5 24.5277 61.5 27.1875C61.5 29.8473 59.1516 32 56.25 32Z" fill="#F5F5F5"/>
</g>
<defs>
<clipPath id="clip0_15_52">
<rect width="30" height="22" fill="white" transform="translate(36 21)"/>
</clipPath>
</defs>
</svg>
