<svg width="103" height="70" viewBox="0 0 103 70" fill="none" xmlns="http://www.w3.org/2000/svg">
<path d="M92.7 60.62C95.7643 59.1912 97.85 56.5641 97.85 53.5294V8.23529C97.85 3.69353 93.2305 0 87.55 0H15.45C9.76955 0 5.15 3.69353 5.15 8.23529V53.5294C5.15 56.56 7.23575 59.1912 10.3 60.62V61.7647H0V70H103V61.7647H92.7V60.62ZM15.45 53.5294V8.23529H87.55L87.5603 53.5294H15.45Z" fill="#F5F5F5"/>
<g clip-path="url(#clip0_15_53)">
<path d="M43.6874 21.7344C41.8234 21.7344 40.3124 23.1195 40.3124 24.8281C40.3124 26.5368 41.8234 27.9219 43.6874 27.9219C45.5514 27.9219 47.0624 26.5368 47.0624 24.8281C47.0624 23.1195 45.5507 21.7344 43.6874 21.7344ZM64.4367 16.0625H37.4366C35.0144 16.0625 32.9993 17.9091 32.9993 20.1875V40.8125C32.9993 43.0909 35.0137 44.9375 37.436 44.9375H64.436C66.9216 44.9375 68.936 43.0909 68.936 40.8125V20.1875C68.9367 17.9091 66.982 16.0625 64.4367 16.0625ZM65.5617 40.3807L55.9429 28.3988C55.7671 28.1023 55.3663 27.9219 54.9374 27.9219C54.5076 27.9219 54.1063 28.1003 53.868 28.3975L46.3727 37.6852L43.7648 34.7139C43.5228 34.4381 43.1366 34.275 42.7263 34.275C42.3155 34.275 41.9296 34.438 41.687 34.7139L36.377 40.7602C36.377 40.7583 36.377 40.7621 36.377 40.7602L36.3742 20.1875C36.3742 19.6189 36.8789 19.1562 37.4992 19.1562H64.4992C65.1195 19.1562 65.6242 19.6189 65.6242 20.1875V40.3807H65.5617Z" fill="#F5F5F5"/>
</g>
<defs>
<clipPath id="clip0_15_53">
<rect width="36" height="33" fill="white" transform="translate(33 14)"/>
</clipPath>
</defs>
</svg>
