<svg width="39" height="41" viewBox="0 0 39 41" fill="none" xmlns="http://www.w3.org/2000/svg">
<path d="M33.048 6.69493C29.4126 2.93305 24.5712 0.864014 19.4261 0.864014C8.80629 0.864014 0.164667 9.78505 0.164667 20.7483C0.164667 24.2504 1.04965 27.6719 2.73286 30.6904L-0.000183105 40.9908L10.2119 38.2231C13.023 39.8085 16.1899 40.6415 19.4174 40.6415H19.4261C30.0373 40.6415 38.8698 31.7204 38.8698 20.7572C38.8698 15.4458 36.6833 10.4568 33.048 6.69493ZM19.4261 37.2916C16.5456 37.2916 13.7258 36.4944 11.2704 34.9897L10.6891 34.6314L4.63298 36.2705L6.24678 30.1709L5.86502 29.5439C4.2599 26.9106 3.41829 23.8742 3.41829 20.7483C3.41829 11.6391 10.6023 4.22284 19.4348 4.22284C23.7122 4.22284 27.7294 5.94256 30.7487 9.0685C33.7681 12.1944 35.6248 16.3415 35.6162 20.7572C35.6162 29.8753 28.25 37.2916 19.4261 37.2916ZM28.2066 24.9132C27.7294 24.6624 25.3607 23.4622 24.9182 23.301C24.4758 23.1308 24.1547 23.0502 23.8337 23.5518C23.5127 24.0533 22.593 25.164 22.3067 25.5044C22.029 25.8358 21.7427 25.8805 21.2655 25.6297C18.437 24.1698 16.5803 23.0233 14.7149 19.7182C14.2203 18.8404 15.2094 18.9031 16.1291 17.0043C16.2853 16.6729 16.2072 16.3863 16.0857 16.1355C15.9643 15.8847 15.0012 13.4395 14.6021 12.4452C14.2116 11.4779 13.8125 11.6123 13.5175 11.5943C13.2399 11.5764 12.9189 11.5764 12.5979 11.5764C12.2768 11.5764 11.7562 11.7018 11.3138 12.1944C10.8713 12.696 9.63055 13.8963 9.63055 16.3415C9.63055 18.7867 11.3571 21.1513 11.5914 21.4827C11.8343 21.8141 14.9838 26.83 19.8166 28.9886C22.8706 30.35 24.068 30.4665 25.595 30.2336C26.5234 30.0903 28.4408 29.0334 28.8399 27.869C29.2391 26.7046 29.2391 25.7104 29.1176 25.5044C29.0048 25.2804 28.6838 25.155 28.2066 24.9132Z" fill="#F5F5F5"/>
</svg>
