<svg width="41" height="94" viewBox="0 0 41 94" fill="none" xmlns="http://www.w3.org/2000/svg">
<path d="M20.3438 58.3333H20.4167C31.6721 58.3333 40.8333 49.175 40.8333 37.9167V20.4167C40.8333 9.21375 31.7129 0.0758333 20.4721 0H20.2971C9.09708 0.0641667 0 9.20792 0 20.4167V37.9167C0 49.175 9.12625 58.3333 20.3438 58.3333ZM5.83333 20.4167C5.83869 16.5581 7.37087 12.8585 10.0952 10.1261C12.8194 7.39357 16.5144 5.85028 20.3729 5.83333C28.4375 5.85083 35 12.3929 35 20.4167V37.9167C35 45.9579 28.4579 52.5 20.4167 52.5H20.3438C12.2092 52.5 5.83333 46.095 5.83333 37.9167V20.4167Z" fill="#30FFFF"/>
<path d="M17.5 11.6667H23.3333V29.1667H17.5V11.6667Z" fill="#30FFFF"/>
<path d="M20 88.4005L10.9732 79.9002L8 82.6999L20 94L32 82.6999L29.0268 79.9002L20 88.4005Z" fill="#30FFFF"/>
<path d="M32 72.7998L29.0268 70L20 78.5003L10.9732 70L8 72.7998L20 84.0998L32 72.7998Z" fill="#30FFFF"/>
</svg>
