<svg width="78" height="92" viewBox="0 0 78 92" fill="none" xmlns="http://www.w3.org/2000/svg">
<circle cx="43.5386" cy="40.5" r="33.5" fill="#F5F5F5"/>
<path d="M20.0386 67L48.648 0L77.2575 67H66.815L64.717 61.7129H32.6744L30.481 67H20.0386ZM36.1075 53.1898H61.1885L48.648 22.4701L36.1075 53.1898Z" fill="#080809"/>
<path d="M33.9587 12.9511C33.2222 13.5001 32.4926 14.0464 31.7611 14.5974C30.5987 15.4618 29.4414 16.3283 28.2841 17.1948C28.0171 17.3923 27.7501 17.5898 27.4813 17.7919C27.0012 18.1551 27.1256 18.9051 27.7551 19.1531C28.6509 19.5059 29.5415 19.8568 30.4322 20.2076C30.5909 20.2701 30.7444 20.3306 30.898 20.3911C30.8944 20.4003 30.8926 20.4049 30.8889 20.4141C30.6263 21.0807 24.022 37.8468 23.8536 38.2744C23.4404 38.2125 23.0175 38.2053 22.6238 38.2891C21.8987 38.4337 21.2958 38.7485 20.8147 39.2493C19.9248 40.1574 19.8019 41.6703 20.5238 42.8097C20.8123 43.2632 21.1761 43.6455 21.6189 43.9474C21.3292 44.6829 20.6229 46.4758 20.5595 46.6367C20.1412 46.5729 19.7217 46.5722 19.3298 46.6515C18.6047 46.7961 18.0017 47.1109 17.5206 47.6117C16.629 48.5244 16.5078 50.0327 17.2298 51.1721C17.5183 51.6256 17.8821 52.0079 18.3231 52.3143C18.2452 52.512 17.539 54.305 17.2655 54.9991C16.8541 54.9327 16.4295 54.93 16.0357 55.0139C15.3106 55.1584 14.7077 55.4732 14.2266 55.9741C13.3367 56.8822 13.2138 58.3951 13.9357 59.5345C14.2242 59.988 14.588 60.3703 15.0309 60.6721C14.7936 61.2744 14.0823 63.0653 13.9664 63.3595C13.5532 63.2977 13.1354 63.2924 12.7435 63.3717C12.0166 63.5208 11.4137 63.8356 10.9344 64.3319C10.0427 65.2446 9.91978 66.7575 10.6417 67.8968C10.9302 68.3504 11.294 68.7326 11.7368 69.0345C11.5394 69.5356 10.8332 71.3286 10.6774 71.7239C10.2661 71.6575 9.84139 71.6548 9.44948 71.7341C8.72258 71.8832 8.11964 72.198 7.64034 72.6943C6.74866 73.607 6.62575 75.1199 7.34768 76.2592C7.63616 76.7127 8.0018 77.0904 8.44279 77.3969C8.27257 77.8291 4.17112 88.2578 3.952 88.8141C3.952 88.8141 4.05076 88.853 4.35787 88.974C4.05076 88.853 4.35787 88.974 4.53497 89.0437C4.93548 89.2015 4.76019 89.1325 4.76019 89.1325C5.07242 89.2554 5.07242 89.2554 5.07242 89.2554C5.23621 89.32 5.4 89.3845 5.41944 89.3922C5.41944 89.3922 5.07242 89.2554 5.4 89.3845C5.45543 89.4063 5.39937 89.3811 5.57405 89.453C5.46525 89.4102 5.4582 89.4074 5.57405 89.453C5.55791 89.4464 5.45156 89.4048 5.57405 89.453C5.72978 89.0577 9.79526 78.7369 10.0669 78.0473C10.4063 78.1013 10.7484 78.1033 11.0759 78.0677C11.7343 77.9872 12.3773 77.7359 12.8412 77.3239C13.3906 76.8446 13.7294 76.2399 13.8381 75.5286C14.0285 74.3397 13.372 73.1093 12.3034 72.3697C12.3957 72.1352 13.3301 69.7631 13.3609 69.6849C13.7021 69.7343 14.0425 69.7409 14.3699 69.7053C15.0284 69.6248 15.668 69.3669 16.137 68.9569C16.6814 68.4756 17.0183 67.8755 17.1321 67.1662C17.3225 65.9773 16.666 64.7469 15.5923 64.0053C15.672 63.803 16.3764 62.0147 16.6498 61.3205C16.9911 61.3699 17.3365 61.3786 17.6657 61.3383C18.3224 61.2624 18.9621 61.0046 19.431 60.5945C19.9754 60.1132 20.3123 59.5131 20.4261 58.8038C20.6166 57.6149 19.9601 56.3845 18.8863 55.6429C19.1235 55.0407 19.8349 53.2497 19.9508 52.9555C20.2902 53.0096 20.6305 53.0162 20.9598 52.9759C21.6164 52.9 22.2561 52.6422 22.7251 52.2321C23.2694 51.7509 23.6063 51.1507 23.7202 50.4415C23.9106 49.2525 23.2541 48.0221 22.1803 47.2805C22.1966 47.2391 23.1655 44.7796 23.2397 44.5911C23.5791 44.6452 23.9246 44.6538 24.2538 44.6135C24.9105 44.5376 25.5501 44.2798 26.0191 43.8697C26.5634 43.3885 26.9022 42.7837 27.0142 42.0791C27.2046 40.8902 26.5481 39.6597 25.4762 38.9135C25.5215 38.7986 32.4699 21.159 32.5275 21.0277C33.2492 21.312 33.9761 21.5983 34.6978 21.8826C35.0203 22.0096 35.3428 22.1366 35.6652 22.2637C35.6704 22.2657 35.6755 22.2677 35.6806 22.2697C35.817 22.3287 35.9679 22.351 36.1179 22.3304C36.1609 22.3262 36.2007 22.3153 36.2405 22.3044C36.2492 22.2972 36.2613 22.2966 36.2682 22.2941C36.2751 22.2915 36.2802 22.2935 36.2821 22.2889C36.5035 22.2221 36.6922 22.0734 36.7634 21.8625C36.7743 21.8349 36.7818 21.8007 36.7876 21.7711C36.8154 21.6705 36.8158 21.5645 36.7939 21.4549C36.6347 20.5532 36.4737 19.656 36.3093 18.7522C36.0539 17.3292 35.7933 15.9042 35.5379 14.4813C35.4791 14.1501 35.4185 13.8235 35.3631 13.499C35.2542 12.9197 34.4352 12.5971 33.9587 12.9511ZM14.8493 65.3961C14.9438 65.4864 15.0314 65.5793 15.1084 65.684C15.1234 65.7059 15.1403 65.7231 15.1553 65.745C15.1902 65.8065 15.2302 65.8701 15.2633 65.9362C15.2913 66.0003 15.321 66.0598 15.3472 66.1286C15.3553 66.153 15.3634 66.1774 15.3715 66.2019C15.407 66.322 15.4252 66.4408 15.4366 66.5621C15.4407 66.7018 15.4294 66.8354 15.4043 66.9742C15.3672 67.1136 15.3146 67.2469 15.2468 67.3742C15.1723 67.4882 15.0876 67.5982 14.9893 67.6976C14.9001 67.774 14.8039 67.8529 14.696 67.9166C14.6786 67.931 14.656 67.9433 14.6352 67.9511C14.5692 67.9835 14.505 68.0113 14.4357 68.0371C14.3682 68.0584 14.3008 68.0796 14.2333 68.1008C14.2074 68.1065 14.1815 68.1122 14.1555 68.118C14.0245 68.1354 13.8953 68.1482 13.7646 68.1498C13.6152 68.1388 13.4643 68.1165 13.3171 68.0851C13.1581 68.0384 13.0096 67.9799 12.8615 67.9056C12.7323 67.8282 12.6068 67.7416 12.49 67.6478C12.3955 67.5574 12.3047 67.4579 12.2258 67.3578C12.2159 67.338 12.199 67.3207 12.184 67.2989C12.1458 67.2307 12.1091 67.1738 12.076 67.1076C12.043 67.0415 12.015 66.9774 11.9922 66.9153C11.984 66.8908 11.9759 66.8664 11.9678 66.842C11.9324 66.7218 11.9141 66.6031 11.8976 66.4798C11.8987 66.3421 11.9066 66.2018 11.935 66.0696C11.9722 65.9303 12.0247 65.7969 12.0926 65.6697C12.1637 65.549 12.2518 65.4456 12.3449 65.3442C12.4411 65.2653 12.5354 65.1909 12.6433 65.1272C12.6608 65.1128 12.6834 65.1005 12.706 65.0882C12.7701 65.0603 12.8343 65.0325 12.9036 65.0067C12.9678 64.9789 13.0353 64.9577 13.1079 64.9385C13.1338 64.9327 13.1579 64.9316 13.1838 64.9259C13.3115 64.9018 13.444 64.8956 13.5748 64.894C13.726 64.9005 13.8768 64.9227 14.0292 64.9562C14.0924 64.9758 14.1608 64.9974 14.2273 65.0236C14.2376 65.0277 14.2478 65.0317 14.2581 65.0357C14.3297 65.0639 14.4047 65.0988 14.4745 65.1316C14.6088 65.2111 14.7274 65.3003 14.8493 65.3961ZM21.0626 48.4068C21.1917 48.4843 21.3155 48.5755 21.4374 48.6713C21.5319 48.7616 21.6194 48.8545 21.6965 48.9592C21.7115 48.9811 21.7284 48.9983 21.7434 49.0202C21.7783 49.0817 21.8183 49.1453 21.8514 49.2114C21.8793 49.2755 21.9091 49.3351 21.9352 49.4038C21.9434 49.4282 21.9515 49.4527 21.9596 49.4771C21.995 49.5973 22.0133 49.716 22.0246 49.8373C22.0287 49.977 22.0175 50.1106 21.9924 50.2494C21.9552 50.3888 21.9027 50.5221 21.8348 50.6494C21.7603 50.7634 21.6756 50.8734 21.5774 50.9728C21.4881 51.0492 21.392 51.1282 21.2859 51.1873C21.2684 51.2016 21.2458 51.214 21.2232 51.2263C21.1591 51.2541 21.0931 51.2866 21.0238 51.3124C20.9563 51.3336 20.8888 51.3548 20.8213 51.376C20.7954 51.3817 20.7695 51.3875 20.7436 51.3932C20.6126 51.4106 20.4852 51.4188 20.3544 51.4204C20.2033 51.414 20.0524 51.3917 19.9051 51.3603C19.7461 51.3136 19.5977 51.2551 19.4496 51.1808C19.3204 51.1034 19.1949 51.0168 19.0799 50.9184C18.9854 50.8281 18.8927 50.7331 18.8139 50.633C18.804 50.6132 18.7889 50.5914 18.7721 50.5741C18.7321 50.5105 18.6972 50.449 18.6641 50.3829C18.631 50.3167 18.6031 50.2526 18.5802 50.1905C18.5721 50.1661 18.564 50.1416 18.5559 50.1172C18.5204 49.997 18.5022 49.8783 18.4857 49.755C18.4867 49.6173 18.4929 49.4816 18.5231 49.3449C18.5602 49.2055 18.6128 49.0722 18.6806 48.9449C18.75 48.8288 18.8398 48.7208 18.933 48.6195C19.0291 48.5405 19.1235 48.4661 19.2314 48.4024C19.2488 48.3881 19.2714 48.3757 19.2922 48.368C19.3582 48.3356 19.4224 48.3077 19.4917 48.2819C19.554 48.2587 19.6215 48.2375 19.6941 48.2183C19.72 48.2126 19.7459 48.2068 19.7719 48.2011C19.8996 48.1771 20.0321 48.1709 20.1628 48.1692C20.3122 48.1803 20.4649 48.198 20.6173 48.2314C20.6805 48.251 20.7471 48.2772 20.8154 48.2988C20.8256 48.3029 20.8359 48.3069 20.841 48.3089C20.916 48.3438 20.9876 48.372 21.0626 48.4068ZM34.1571 16.3803C34.3943 17.6845 34.6264 18.9867 34.8603 20.2844C34.4252 20.113 33.9952 19.9436 33.5601 19.7722C32.2753 19.2661 30.9855 18.758 29.7007 18.2519C30.0671 17.9821 30.4303 17.7056 30.7986 17.4311C31.8389 16.6514 32.8844 15.8736 33.9299 15.0959C34.0039 15.5233 34.078 15.9508 34.1571 16.3803Z" fill="#080809"/>
</svg>
