<svg width="86" height="81" viewBox="0 0 86 81" fill="none" xmlns="http://www.w3.org/2000/svg">
<rect x="3" y="3" width="42.1978" height="58.618" fill="#080809" stroke="#F5F5F5" stroke-width="6"/>
<rect x="1.62466" y="3.92227" width="42.3668" height="58.3219" transform="matrix(0.923627 0.383293 -0.382074 0.924132 42.9498 2.69427)" fill="#080809" stroke="#F5F5F5" stroke-width="6"/>
<path d="M47.0181 62.3487L36.8951 51.2397L51.9089 51.3433L51.0164 53.3517L49.8452 53.3129L47.1064 59.4759L47.9107 60.3402L47.0181 62.3487ZM45.801 58.1024L47.9448 53.2784L41.1102 53.1199L45.801 58.1024Z" fill="white"/>
<path d="M50.4609 36.113C50.8975 36.5138 51.2461 36.9743 51.5077 37.4921C51.7683 38.0122 51.9333 38.5803 52.0006 39.1955C52.0129 39.2312 52.0167 39.2686 52.0111 39.3101C52.0076 39.3525 52.0105 39.3922 52.0217 39.4247L57.4377 38.9944L56.5126 41.0762L51.7997 41.4686C51.758 41.6258 51.7099 41.7802 51.6554 41.9317C51.603 42.0841 51.536 42.2465 51.4606 42.4162L50.3887 44.8282L54.1079 46.4873L53.2316 48.4591L40.629 42.8375L42.5772 38.4537C42.8217 37.9034 43.1172 37.4171 43.4626 36.9915C43.8122 36.5622 44.1904 36.1952 44.5963 35.8927C45.6179 35.1616 46.732 34.8618 47.9386 34.988C48.0045 34.9954 48.0619 35.0045 48.1129 35.0108C48.165 35.0203 48.2245 35.0248 48.2913 35.0244L48.3768 35.0625C48.4447 35.0653 48.5138 35.0769 48.5852 35.1006C48.6557 35.1265 48.7282 35.1478 48.8027 35.1646L48.8198 35.1722C48.8933 35.1913 48.9647 35.2149 49.0331 35.2454C49.1015 35.2759 49.1763 35.3093 49.2554 35.3446L49.3067 35.3674C49.3751 35.398 49.4435 35.4285 49.5119 35.459C49.5803 35.4895 49.6457 35.5269 49.709 35.5688L49.7432 35.5841C49.8055 35.6284 49.8676 35.6671 49.9276 35.6993C49.9887 35.7348 50.0456 35.7795 50.1039 35.8329L50.1723 35.8634C50.2824 35.973 50.3793 36.0547 50.4609 36.113ZM49.9506 41.457C50.1299 41.0534 50.2149 40.649 50.2044 40.2405C50.198 39.8283 50.1168 39.4404 49.9629 39.0778C49.8102 38.7184 49.5985 38.3878 49.326 38.0904C49.0492 37.7911 48.7292 37.5604 48.3636 37.3974C48.011 37.24 47.6299 37.158 47.2227 37.1522C46.8155 37.1464 46.4286 37.2101 46.0641 37.3387C45.6943 37.4677 45.3523 37.6668 45.0402 37.9369C44.7322 38.2034 44.4869 38.5363 44.3076 38.9399L43.1379 41.572L48.7809 44.0891L49.9506 41.457Z" fill="white"/>
<path d="M49.9986 21.8L53.1126 27.7715L62.7293 26.9951L61.8081 29.0678L54.114 29.6908L55.4629 32.3035L59.5584 34.1303L58.6903 36.0838L46.1389 30.4851L47.007 28.5316L52.7013 31.0716L49.0041 24.0377L49.9986 21.8Z" fill="white"/>
<path d="M65.7153 26.7567C65.3662 27.0351 65.0202 27.3121 64.6733 27.5914C64.1225 28.0298 63.5738 28.4691 63.0251 28.9085C62.8986 29.0086 62.7721 29.1088 62.6446 29.2113C62.4168 29.3954 62.4341 29.7657 62.697 29.883C63.0711 30.0499 63.443 30.2158 63.8149 30.3817C63.8812 30.4112 63.9453 30.4398 64.0094 30.4684C64.0074 30.473 64.0064 30.4753 64.0043 30.4799C63.8566 30.8124 60.1406 39.1742 60.0458 39.3874C59.8683 39.3605 59.6838 39.3606 59.5076 39.4056C59.1835 39.4836 58.9044 39.6448 58.6694 39.8971C58.2355 40.3547 58.1069 41.105 58.3661 41.663C58.4698 41.885 58.6099 42.0712 58.7885 42.2168C58.6255 42.5836 58.2281 43.4778 58.1924 43.5581C58.0128 43.5301 57.8294 43.5335 57.6542 43.5762C57.3301 43.6542 57.051 43.8154 56.816 44.0677C56.3811 44.5276 56.2535 45.2757 56.5127 45.8336C56.6164 46.0556 56.7565 46.2418 56.9341 46.3897C56.8902 46.4883 56.4929 47.3825 56.339 47.7287C56.1625 47.6994 55.977 47.7018 55.8008 47.7468C55.4767 47.8248 55.1976 47.986 54.9625 48.2383C54.5287 48.6959 54.4001 49.4463 54.6593 50.0042C54.7629 50.2263 54.9031 50.4124 55.0817 50.558C54.9482 50.8584 54.5487 51.7516 54.4835 51.8983C54.3059 51.8713 54.1236 51.8724 53.9484 51.9152C53.6233 51.9954 53.3442 52.1566 53.1101 52.4067C52.6753 52.8665 52.5467 53.6169 52.8059 54.1748C52.9095 54.3969 53.0496 54.583 53.2282 54.7286C53.1172 54.9785 52.7198 55.8727 52.6322 56.0699C52.4557 56.0406 52.2702 56.043 52.095 56.0858C51.7699 56.166 51.4908 56.3273 51.2567 56.5773C50.8218 57.0371 50.6933 57.7875 50.9525 58.3454C51.0561 58.5675 51.1972 58.7513 51.3748 58.8992C51.279 59.1147 48.9705 64.3159 48.8472 64.5933C48.8472 64.5933 48.8885 64.6117 49.0167 64.6689C48.8885 64.6117 49.0167 64.6689 49.0907 64.7019C49.2579 64.7765 49.1847 64.7439 49.1847 64.7439C49.3151 64.802 49.3151 64.802 49.3151 64.802C49.3835 64.8325 49.4519 64.863 49.46 64.8667C49.46 64.8667 49.3151 64.802 49.4519 64.863C49.475 64.8734 49.4518 64.8614 49.5246 64.8954C49.4791 64.8752 49.4762 64.8739 49.5246 64.8954C49.5178 64.8923 49.4734 64.8726 49.5246 64.8954C49.6122 64.6983 51.8997 59.5509 52.0525 59.207C52.1982 59.2308 52.3476 59.2288 52.4925 59.2082C52.7843 59.1625 53.0777 59.0324 53.3009 58.8243C53.5647 58.5821 53.7427 58.2796 53.8254 57.9263C53.9674 57.3358 53.7414 56.7323 53.3109 56.3754C53.3628 56.2585 53.8886 55.0754 53.9059 55.0364C54.0526 55.0579 54.201 55.0581 54.3459 55.0376C54.6377 54.9919 54.93 54.8586 55.1553 54.6514C55.417 54.4082 55.594 54.108 55.6788 53.7557C55.8209 53.1652 55.5948 52.5616 55.1622 52.2038C55.207 52.1029 55.6033 51.211 55.7572 50.8648C55.9039 50.8863 56.0545 50.8875 56.2004 50.8647C56.4911 50.8213 56.7834 50.688 57.0087 50.4807C57.2704 50.2376 57.4474 49.9374 57.5322 49.5851C57.6743 48.9946 57.4482 48.391 57.0156 48.0332C57.1491 47.7328 57.5486 46.8396 57.6138 46.6929C57.7595 46.7166 57.9079 46.7169 58.0538 46.6941C58.3445 46.6507 58.6369 46.5173 58.8621 46.3101C59.1239 46.067 59.3008 45.7668 59.3856 45.4145C59.5277 44.824 59.3016 44.2204 58.869 43.8626C58.8782 43.842 59.4233 42.6153 59.4651 42.5213C59.6107 42.5451 59.7613 42.5463 59.9072 42.5235C60.198 42.4801 60.4903 42.3467 60.7155 42.1395C60.9773 41.8964 61.1552 41.5939 61.2391 41.2439C61.3811 40.6534 61.155 40.0498 60.7234 39.6897C60.7489 39.6324 64.6585 30.8349 64.6902 30.7693C64.9916 30.9038 65.2951 31.0392 65.5965 31.1736C65.7311 31.2337 65.8658 31.2937 66.0005 31.3538C66.0026 31.3548 66.0047 31.3557 66.0069 31.3567C66.0636 31.3847 66.1284 31.3944 66.195 31.3829C66.214 31.3804 66.232 31.3746 66.2499 31.3689C66.254 31.3653 66.2593 31.3649 66.2625 31.3635C66.2657 31.3622 66.2678 31.3632 66.2688 31.3609C66.3689 31.3258 66.4587 31.2505 66.5003 31.1454C66.5064 31.1317 66.5114 31.1147 66.5154 31.1C66.5325 31.0499 66.5379 30.9974 66.5338 30.9433C66.5088 30.4981 66.4828 30.0552 66.4557 29.609C66.4144 28.9065 66.371 28.2031 66.3298 27.5006C66.3205 27.3371 66.3101 27.1759 66.302 27.0157C66.283 26.7297 65.941 26.5772 65.7153 26.7567ZM54.7686 52.8992C54.8055 52.9431 54.8391 52.9883 54.8676 53.0395C54.8731 53.0502 54.8796 53.0586 54.8851 53.0693C54.8973 53.0994 54.9117 53.1306 54.9229 53.163C54.9319 53.1945 54.942 53.2238 54.95 53.2576C54.9523 53.2696 54.9547 53.2816 54.957 53.2937C54.9666 53.3529 54.9687 53.4115 54.9676 53.4715C54.9625 53.5406 54.951 53.6069 54.9331 53.6759C54.91 53.7452 54.8805 53.8117 54.8445 53.8753C54.8063 53.9325 54.7638 53.9877 54.716 54.0378C54.6732 54.0764 54.6273 54.1164 54.577 54.1489C54.5686 54.1561 54.5581 54.1624 54.5486 54.1665C54.5182 54.1831 54.4888 54.1974 54.4572 54.2108C54.4267 54.2219 54.3961 54.233 54.3656 54.2441C54.354 54.2472 54.3424 54.2503 54.3308 54.2533C54.2726 54.2631 54.2155 54.2706 54.1583 54.2726C54.0935 54.2684 54.0287 54.2587 53.9659 54.2444C53.8987 54.2227 53.8367 54.1951 53.7757 54.1596C53.723 54.1224 53.6725 54.0806 53.6261 54.0352C53.5892 53.9913 53.5544 53.9428 53.5249 53.8939C53.5216 53.8842 53.515 53.8758 53.5096 53.8651C53.4962 53.8316 53.483 53.8038 53.4718 53.7713C53.4606 53.7388 53.4516 53.7073 53.4447 53.6768C53.4423 53.6647 53.44 53.6527 53.4377 53.6407C53.4281 53.5815 53.426 53.5228 53.4249 53.4619C53.4322 53.3937 53.4426 53.3242 53.4615 53.2585C53.4847 53.1891 53.5142 53.1226 53.5502 53.059C53.5873 52.9986 53.6309 52.9466 53.6766 52.8956C53.7225 52.8556 53.7674 52.818 53.8177 52.7855C53.8261 52.7782 53.8366 52.7719 53.8471 52.7656C53.8765 52.7512 53.9059 52.7369 53.9375 52.7235C53.9669 52.7091 53.9974 52.698 54.0301 52.6879C54.0417 52.6848 54.0523 52.6841 54.0639 52.681C54.1209 52.668 54.1792 52.6637 54.2364 52.6618C54.3022 52.6636 54.367 52.6733 54.4319 52.6886C54.4586 52.6977 54.4874 52.7078 54.5152 52.7202C54.5195 52.7221 54.5238 52.724 54.528 52.7259C54.558 52.7393 54.589 52.7559 54.6179 52.7715C54.6727 52.8097 54.7201 52.8528 54.7686 52.8992ZM58.3247 44.4303C58.3774 44.4675 58.4269 44.5116 58.4755 44.558C58.5123 44.6019 58.546 44.6471 58.5745 44.6983C58.5799 44.709 58.5865 44.7174 58.592 44.728C58.6042 44.7582 58.6185 44.7893 58.6297 44.8218C58.6387 44.8533 58.6488 44.8825 58.6568 44.9163C58.6592 44.9284 58.6615 44.9404 58.6638 44.9524C58.6734 45.0116 58.6755 45.0703 58.6745 45.1302C58.6693 45.1994 58.6578 45.2657 58.64 45.3346C58.6168 45.404 58.5873 45.4705 58.5513 45.5341C58.5131 45.5913 58.4707 45.6465 58.4228 45.6966C58.38 45.7352 58.3341 45.7751 58.2848 45.8054C58.2765 45.8126 58.266 45.8189 58.2555 45.8252C58.226 45.8396 58.1956 45.8562 58.164 45.8696C58.1335 45.8807 58.1029 45.8918 58.0724 45.9029C58.0608 45.906 58.0492 45.909 58.0376 45.9121C57.9794 45.9219 57.9234 45.9271 57.8661 45.929C57.8004 45.9272 57.7355 45.9175 57.6727 45.9032C57.6055 45.8815 57.5436 45.8538 57.4825 45.8184C57.4299 45.7811 57.3793 45.7394 57.3339 45.6916C57.2971 45.6477 57.2613 45.6015 57.2317 45.5527C57.2284 45.5429 57.2229 45.5322 57.2164 45.5238C57.202 45.4927 57.1898 45.4625 57.1787 45.4301C57.1675 45.3976 57.1584 45.3661 57.1515 45.3355C57.1492 45.3235 57.1468 45.3115 57.1445 45.2995C57.135 45.2403 57.1328 45.1816 57.1317 45.1207C57.139 45.0525 57.1484 44.9852 57.1684 44.9172C57.1915 44.8479 57.2211 44.7814 57.257 44.7178C57.2931 44.6597 57.3377 44.6054 57.3834 44.5544C57.4293 44.5144 57.4743 44.4767 57.5246 44.4442C57.5329 44.437 57.5434 44.4307 57.5529 44.4266C57.5833 44.41 57.6127 44.3957 57.6443 44.3823C57.6727 44.3702 57.7033 44.3591 57.7359 44.349C57.7475 44.3459 57.7592 44.3428 57.7708 44.3398C57.8278 44.3267 57.886 44.3225 57.9432 44.3205C58.008 44.3247 58.0738 44.3321 58.1388 44.3473C58.1654 44.3565 58.1932 44.3689 58.222 44.379C58.2263 44.3809 58.2306 44.3828 58.2327 44.3837C58.2638 44.4003 58.2937 44.4137 58.3247 44.4303ZM65.6324 28.4533C65.6715 29.0971 65.7085 29.74 65.7465 30.3806C65.5648 30.2996 65.3853 30.2195 65.2036 30.1385C64.6671 29.8991 64.1285 29.6589 63.5919 29.4196C63.7655 29.2827 63.9379 29.1425 64.1124 29.0034C64.6057 28.608 65.1011 28.2136 65.5966 27.8192C65.6078 28.0302 65.619 28.2413 65.6324 28.4533Z" fill="white"/>
</svg>
