<svg width="309" height="140" viewBox="0 0 309 140" fill="none" xmlns="http://www.w3.org/2000/svg">
<path d="M9.68683 101.728L54.3949 0L99.1029 101.728H82.7845L79.5059 93.7H29.4329L26.0053 101.728H9.68683ZM34.7978 80.7592H73.9919L54.3949 34.1168L34.7978 80.7592Z" fill="#F5F5F5"/>
<path d="M197.994 46.2272C196.597 50.3793 194.529 54.1162 191.809 57.438C189.071 60.7597 185.718 63.5797 181.75 65.8807C181.545 66.071 181.303 66.2094 181.005 66.2959C180.707 66.3997 180.446 66.5381 180.259 66.7111L199.558 102.004H182.644L165.729 71.3476C164.537 71.5379 163.345 71.6763 162.153 71.7628C160.961 71.8667 159.657 71.9013 158.278 71.9013H138.681V102.004H122.661V0H158.278C162.749 0 166.94 0.536319 170.871 1.59165C174.839 2.66429 178.471 4.11754 181.75 5.9514C189.797 10.6572 195.199 17.2833 197.994 25.8125C198.143 26.2796 198.254 26.6948 198.366 27.0581C198.459 27.4387 198.608 27.8539 198.813 28.3038V28.9958C199 29.4629 199.13 29.9646 199.186 30.5182C199.223 31.0719 199.298 31.6255 199.409 32.1791V32.3175C199.503 32.8711 199.558 33.4247 199.558 33.9784C199.558 34.532 199.558 35.1375 199.558 35.7776V36.1928C199.558 36.7465 199.558 37.3001 199.558 37.8537C199.558 38.4073 199.503 38.9609 199.409 39.5145V39.7914C199.298 40.345 199.223 40.8813 199.186 41.383C199.13 41.902 199 42.421 198.813 42.9747V43.5283C198.403 44.6009 198.143 45.5006 197.994 46.2272ZM160.215 58.822C163.494 58.822 166.493 58.1819 169.231 56.8843C172.007 55.6041 174.392 53.8913 176.385 51.7634C178.359 49.6527 179.961 47.2306 181.154 44.4971C182.346 41.729 182.942 38.8744 182.942 35.916C182.942 33.0614 182.346 30.2414 181.154 27.4733C179.961 24.7052 178.359 22.2832 176.385 20.2071C174.392 18.0964 172.007 16.3837 169.231 15.0861C166.493 13.8059 163.494 13.1484 160.215 13.1484H138.83V58.822H160.215Z" fill="#F5F5F5"/>
<path d="M293.646 0.140381L262.574 39.1013L296.925 101.729H280.085L252.589 51.6269L238.953 68.5815V101.729H223.082V0.140381H238.953V46.2292L275.465 0.140381H293.646Z" fill="#F5F5F5"/>
<path d="M307.573 121.179C304.629 119.657 301.705 118.152 298.761 116.647C294.123 114.242 289.484 111.854 284.846 109.467C283.784 108.913 282.722 108.36 281.642 107.806C279.705 106.82 277.246 108.048 277.246 110.176C277.246 113.204 277.246 116.214 277.246 119.224C277.246 119.761 277.246 120.28 277.246 120.799C277.208 120.799 277.19 120.799 277.152 120.799C274.451 120.799 206.514 120.799 204.781 120.799C204.427 119.518 203.869 118.273 203.03 117.218C201.521 115.263 199.584 113.861 197.162 113.031C192.747 111.474 187.271 112.858 184.272 116.283C183.079 117.65 182.241 119.155 181.794 120.799C178.813 120.799 171.548 120.799 170.896 120.799C170.543 119.501 169.965 118.273 169.145 117.218C167.636 115.263 165.699 113.861 163.277 113.031C158.844 111.474 153.386 112.858 150.387 116.283C149.194 117.65 148.356 119.155 147.89 120.799C147.089 120.799 139.824 120.799 137.012 120.799C136.676 119.518 136.099 118.273 135.26 117.218C133.752 115.263 131.814 113.861 129.393 113.031C124.978 111.474 119.501 112.858 116.502 116.283C115.309 117.65 114.471 119.155 114.024 120.799C111.584 120.799 104.319 120.781 103.127 120.781C102.773 119.501 102.214 118.273 101.394 117.218C99.8666 115.263 97.9292 113.861 95.5262 113.031C91.0926 111.474 85.6159 112.858 82.6167 116.283C81.4245 117.65 80.5862 119.155 80.1392 120.799C78.1087 120.799 70.8436 120.799 69.2416 120.799C68.9063 119.518 68.3288 118.273 67.5091 117.218C65.9816 115.263 64.0443 113.861 61.6412 113.031C57.2077 111.474 51.7309 112.858 48.7318 116.283C47.5396 117.65 46.7199 119.155 46.2542 120.799C44.5032 120.799 2.25409 120.818 5.91231e-05 120.818C5.91231e-05 120.818 5.91231e-05 121.152 5.91231e-05 122.19C5.91231e-05 121.152 5.91231e-05 122.19 5.91231e-05 122.788C5.91231e-05 124.142 5.91231e-05 123.55 5.91231e-05 123.55C5.91231e-05 124.605 5.91231e-05 124.605 5.91231e-05 124.605C0 125.158 0 125.712 0 125.778C0 125.778 5.91231e-05 124.605 0 125.712C0 125.899 0.0111268 125.706 6.9356e-05 126.3C0.00013189 125.933 0.000135942 125.909 6.9356e-05 126.3C0.00106768 126.245 0.00013976 125.886 6.9356e-05 126.3C1.60211 126.3 43.4227 126.3 46.217 126.3C46.4964 127.356 46.9621 128.359 47.5396 129.276C48.7318 131.11 50.5015 132.702 52.5878 133.584C55.0282 134.639 57.6175 134.933 60.2627 134.432C64.6963 133.618 68.1052 130.279 69.223 126.3C70.173 126.3 79.7852 126.3 80.1019 126.3C80.4 127.356 80.847 128.359 81.4245 129.276C82.6167 131.11 84.4051 132.684 86.4914 133.584C88.9317 134.622 91.5024 134.916 94.1477 134.432C98.5812 133.618 101.99 130.279 103.108 126.283C103.928 126.283 111.174 126.283 113.987 126.283C114.285 127.338 114.732 128.359 115.328 129.276C116.502 131.11 118.29 132.684 120.376 133.584C122.817 134.622 125.387 134.916 128.033 134.432C132.466 133.618 135.875 130.279 136.993 126.283C139.433 126.283 146.698 126.3 147.89 126.3C148.17 127.356 148.617 128.359 149.213 129.276C150.387 131.11 152.175 132.684 154.261 133.584C156.702 134.622 159.272 134.916 161.918 134.432C166.351 133.618 169.76 130.279 170.878 126.283C171.045 126.283 181.012 126.283 181.775 126.283C182.055 127.338 182.502 128.359 183.098 129.276C184.272 131.11 186.06 132.684 188.146 133.584C190.587 134.622 193.176 134.916 195.803 134.432C200.236 133.618 203.645 130.279 204.781 126.283C205.247 126.283 276.724 126.283 277.264 126.3C277.264 128.74 277.264 131.196 277.264 133.636C277.264 134.726 277.264 135.816 277.264 136.906C277.264 136.923 277.264 136.94 277.264 136.957C277.246 137.425 277.376 137.892 277.655 138.307C277.73 138.428 277.823 138.532 277.916 138.636C277.953 138.653 277.972 138.688 277.991 138.705C278.009 138.722 278.009 138.739 278.028 138.739C278.568 139.31 279.351 139.691 280.189 139.656C280.301 139.656 280.431 139.639 280.543 139.622C280.934 139.587 281.307 139.466 281.661 139.276C284.604 137.771 287.529 136.265 290.472 134.743C295.11 132.356 299.749 129.951 304.387 127.563C305.468 127.01 306.529 126.456 307.591 125.92C309.473 124.934 309.473 122.165 307.573 121.179ZM97.2027 125.712C97.0164 126.093 96.8115 126.456 96.5507 126.802C96.4949 126.871 96.4576 126.94 96.4017 127.01C96.2341 127.183 96.0664 127.373 95.8801 127.546C95.6938 127.702 95.5262 127.857 95.3213 128.013C95.2467 128.065 95.1722 128.117 95.0977 128.169C94.7252 128.411 94.334 128.601 93.9241 128.774C93.4398 128.947 92.9555 129.068 92.4339 129.155C91.8936 129.207 91.3534 129.207 90.8132 129.155C90.3102 129.068 89.8073 128.947 89.3229 128.774C88.9317 128.601 88.5219 128.411 88.1494 128.169C88.0748 128.134 88.0003 128.082 87.9444 128.03C87.7395 127.875 87.5532 127.719 87.367 127.546C87.1993 127.373 87.0316 127.2 86.864 127.027C86.8081 126.958 86.7522 126.889 86.6963 126.819C86.4542 126.456 86.2306 126.093 86.0443 125.712C85.8767 125.262 85.7463 124.795 85.6532 124.328C85.5973 123.809 85.5973 123.307 85.6532 122.788C85.7463 122.321 85.8767 121.854 86.0443 121.404C86.2306 121.024 86.4542 120.643 86.6963 120.297C86.7522 120.245 86.7895 120.176 86.8454 120.107C87.0316 119.916 87.1807 119.743 87.367 119.57C87.5532 119.397 87.7395 119.242 87.9258 119.103C88.0003 119.051 88.0748 118.999 88.1494 118.948C88.5219 118.705 88.9131 118.515 89.3229 118.325C89.8073 118.169 90.3102 118.031 90.8132 117.961C91.3534 117.91 91.8936 117.91 92.4339 117.961C92.9555 118.031 93.4398 118.169 93.9241 118.325C94.334 118.515 94.7252 118.705 95.0977 118.948C95.1722 118.982 95.2467 119.034 95.3213 119.086C95.5075 119.242 95.6938 119.397 95.8801 119.57C96.0664 119.726 96.2341 119.899 96.4017 120.089C96.4576 120.159 96.4949 120.228 96.5507 120.297C96.8115 120.643 97.0164 121.024 97.2027 121.404C97.389 121.854 97.5194 122.321 97.6125 122.806C97.6312 123.013 97.6498 123.238 97.6498 123.463C97.6498 123.498 97.6498 123.532 97.6498 123.567C97.6498 123.809 97.6312 124.069 97.6125 124.311C97.5194 124.795 97.3704 125.245 97.2027 125.712ZM165.382 124.311C165.289 124.778 165.14 125.245 164.973 125.712C164.786 126.093 164.581 126.456 164.321 126.802C164.265 126.871 164.227 126.94 164.172 127.01C164.004 127.183 163.836 127.373 163.65 127.546C163.464 127.702 163.296 127.857 163.091 128.013C163.017 128.065 162.942 128.117 162.868 128.169C162.495 128.411 162.104 128.601 161.694 128.774C161.21 128.947 160.725 129.068 160.204 129.155C159.664 129.207 159.123 129.207 158.583 129.155C158.08 129.068 157.577 128.947 157.093 128.774C156.702 128.601 156.292 128.411 155.938 128.169C155.863 128.134 155.789 128.082 155.714 128.03C155.528 127.875 155.323 127.719 155.137 127.546C154.969 127.373 154.802 127.2 154.634 127.027C154.578 126.958 154.522 126.889 154.466 126.819C154.224 126.456 154.019 126.093 153.833 125.712C153.647 125.262 153.516 124.795 153.423 124.328C153.367 123.809 153.367 123.307 153.423 122.788C153.516 122.321 153.647 121.854 153.833 121.404C154.019 121.024 154.224 120.643 154.466 120.297C154.522 120.245 154.578 120.176 154.615 120.107C154.783 119.916 154.951 119.743 155.137 119.57C155.323 119.397 155.509 119.242 155.696 119.103C155.77 119.051 155.845 118.999 155.919 118.948C156.292 118.705 156.683 118.515 157.093 118.325C157.577 118.169 158.062 118.031 158.583 117.961C159.123 117.91 159.664 117.91 160.204 117.961C160.707 118.031 161.21 118.169 161.694 118.325C162.104 118.515 162.495 118.705 162.868 118.948C162.942 118.982 163.017 119.034 163.073 119.086C163.277 119.242 163.464 119.397 163.65 119.57C163.818 119.726 163.985 119.899 164.153 120.089C164.209 120.159 164.265 120.228 164.321 120.297C164.581 120.643 164.786 121.024 164.973 121.404C165.14 121.854 165.289 122.321 165.382 122.806C165.401 123.013 165.401 123.238 165.42 123.463C165.42 123.498 165.42 123.532 165.42 123.55C165.401 123.809 165.401 124.051 165.382 124.311ZM295.818 125.712C291.571 127.909 287.324 130.089 283.095 132.269C283.095 130.798 283.095 129.345 283.095 127.875C283.095 123.532 283.095 119.172 283.095 114.83C284.548 115.591 286.02 116.335 287.491 117.096C291.664 119.242 295.837 121.404 300.009 123.567C298.612 124.276 297.215 124.985 295.818 125.712Z" fill="#F5F5F5"/>
</svg>
