<svg width="177" height="80" viewBox="0 0 177 80" fill="none" xmlns="http://www.w3.org/2000/svg">
<path d="M5.54877 58.2711L31.1582 0L56.7677 58.2711H47.4202L45.5422 53.6728H16.8596L14.8962 58.2711H5.54877ZM19.9327 46.2601H42.3837L31.1582 19.5426L19.9327 46.2601Z" fill="#F5F5F5"/>
<path d="M113.414 26.4796C112.614 28.8581 111.429 30.9986 109.871 32.9014C108.303 34.8041 106.382 36.4194 104.109 37.7375C103.992 37.8465 103.853 37.9257 103.682 37.9753C103.511 38.0348 103.362 38.114 103.255 38.2131L114.31 58.4296H104.621L94.9323 40.869C94.2494 40.978 93.5665 41.0573 92.8836 41.1069C92.2007 41.1663 91.4537 41.1861 90.6641 41.1861H79.4386V58.4296H70.2619V0H90.6641C93.225 0 95.6259 0.307212 97.8774 0.911724C100.15 1.52615 102.231 2.35859 104.109 3.40906C108.719 6.10459 111.813 9.90014 113.414 14.7858C113.499 15.0534 113.563 15.2912 113.627 15.4993C113.681 15.7173 113.766 15.9552 113.883 16.2128V16.6092C113.99 16.8768 114.065 17.1642 114.097 17.4813C114.118 17.7984 114.161 18.1156 114.225 18.4327V18.512C114.278 18.8291 114.31 19.1462 114.31 19.4633C114.31 19.7805 114.31 20.1273 114.31 20.494V20.7318C114.31 21.0489 114.31 21.3661 114.31 21.6832C114.31 22.0003 114.278 22.3174 114.225 22.6345V22.7931C114.161 23.1102 114.118 23.4174 114.097 23.7048C114.065 24.0021 113.99 24.2994 113.883 24.6166V24.9337C113.649 25.5481 113.499 26.0634 113.414 26.4796ZM91.7738 33.6942C93.6519 33.6942 95.3698 33.3275 96.9384 32.5842C98.5283 31.8509 99.8942 30.8698 101.036 29.6509C102.167 28.4418 103.085 27.0544 103.768 25.4886C104.451 23.903 104.792 22.2679 104.792 20.5733C104.792 18.9381 104.451 17.3228 103.768 15.7372C103.085 14.1515 102.167 12.7641 101.036 11.5749C99.8942 10.3659 98.5283 9.38481 96.9384 8.64156C95.3698 7.90822 93.6519 7.53163 91.7738 7.53163H79.524V33.6942H91.7738Z" fill="#F5F5F5"/>
<path d="M168.205 0.0792847L150.406 22.3967L170.083 58.2711H160.437L144.687 29.5716L136.876 39.2834V58.2711H127.785V0.0792847H136.876V26.4796L157.79 0.0792847H168.205Z" fill="#F5F5F5"/>
<path d="M176.182 69.4148C174.496 68.5427 172.821 67.6806 171.135 66.8184C168.478 65.4409 165.821 64.0733 163.164 62.7057C162.556 62.3886 161.948 62.0715 161.329 61.7544C160.219 61.1895 158.811 61.8931 158.811 63.112C158.811 64.8463 158.811 66.5707 158.811 68.295C158.811 68.6022 158.811 68.8995 158.811 69.1968C158.789 69.1968 158.779 69.1968 158.757 69.1968C157.21 69.1968 118.294 69.1968 117.302 69.1968C117.099 68.4635 116.779 67.7499 116.299 67.1454C115.435 66.0256 114.325 65.2229 112.938 64.7472C110.409 63.8553 107.272 64.6481 105.554 66.6103C104.871 67.3932 104.391 68.2554 104.134 69.1968C102.427 69.1968 98.2656 69.1968 97.8921 69.1968C97.6894 68.4536 97.3586 67.7499 96.8891 67.1454C96.0248 66.0256 94.915 65.2229 93.5279 64.7472C90.9883 63.8553 87.8618 64.6481 86.1438 66.6103C85.4609 67.3932 84.9807 68.2554 84.7139 69.1968C84.2551 69.1968 80.0936 69.1968 78.4823 69.1968C78.2902 68.4635 77.9595 67.7499 77.4793 67.1454C76.615 66.0256 75.5052 65.2229 74.118 64.7472C71.5891 63.8553 68.4519 64.6481 66.734 66.6103C66.0511 67.3932 65.5709 68.2554 65.3148 69.1968C63.9169 69.1968 59.7554 69.1869 59.0725 69.1869C58.8697 68.4536 58.5496 67.7499 58.0801 67.1454C57.2051 66.0256 56.0954 65.2229 54.7189 64.7472C52.1793 63.8553 49.0421 64.6481 47.3242 66.6103C46.6412 67.3932 46.1611 68.2554 45.905 69.1968C44.7419 69.1968 40.5803 69.1968 39.6627 69.1968C39.4706 68.4635 39.1398 67.7499 38.6703 67.1454C37.7953 66.0256 36.6856 65.2229 35.309 64.7472C32.7694 63.8553 29.6323 64.6481 27.9143 66.6103C27.2314 67.3932 26.7619 68.2554 26.4951 69.1968C25.4921 69.1968 1.29118 69.2078 3.38667e-05 69.2078C3.38667e-05 69.2078 3.38667e-05 69.399 3.38667e-05 69.9936C3.38667e-05 69.399 3.38667e-05 69.9936 3.38667e-05 70.3365C3.38667e-05 71.1119 3.38667e-05 70.7725 3.38667e-05 70.7725C3.38667e-05 71.377 3.38667e-05 71.377 3.38667e-05 71.377C0 71.6941 0 72.0113 0 72.0489C0 72.0489 3.38667e-05 71.377 0 72.0113C0 72.1186 0.00637359 72.0079 3.97282e-05 72.3482C7.55487e-05 72.1376 7.78696e-05 72.1239 3.97282e-05 72.3482C0.000611586 72.3168 8.00569e-05 72.111 3.97282e-05 72.3482C0.917713 72.3482 24.8732 72.3482 26.4738 72.3482C26.6339 72.9527 26.9006 73.5275 27.2314 74.0527C27.9143 75.1032 28.928 76.0149 30.1231 76.5203C31.521 77.1248 33.0042 77.2933 34.5194 77.0059C37.059 76.5402 39.0117 74.6275 39.652 72.3482C40.1962 72.3482 45.7022 72.3482 45.8836 72.3482C46.0543 72.9527 46.3104 73.5275 46.6412 74.0527C47.3242 75.1032 48.3485 76.005 49.5436 76.5203C50.9415 77.1149 52.414 77.2834 53.9292 77.0059C56.4689 76.5402 58.4216 74.6275 59.0618 72.3383C59.5313 72.3383 63.6822 72.3383 65.2934 72.3383C65.4642 72.9428 65.7203 73.5275 66.0617 74.0527C66.734 75.1032 67.7583 76.005 68.9535 76.5203C70.3513 77.1149 71.8239 77.2834 73.3391 77.0059C75.8787 76.5402 77.8314 74.6275 78.4716 72.3383C79.8695 72.3383 84.031 72.3482 84.7139 72.3482C84.874 72.9527 85.1301 73.5275 85.4715 74.0527C86.1438 75.1032 87.1682 76.005 88.3633 76.5203C89.7611 77.1149 91.2337 77.2834 92.7489 77.0059C95.2885 76.5402 97.2412 74.6275 97.8815 72.3383C97.9775 72.3383 103.686 72.3383 104.124 72.3383C104.284 72.9428 104.54 73.5275 104.881 74.0527C105.554 75.1032 106.578 76.005 107.773 76.5203C109.171 77.1149 110.654 77.2834 112.159 77.0059C114.698 76.5402 116.651 74.6275 117.302 72.3383C117.569 72.3383 158.512 72.3383 158.821 72.3482C158.821 73.7455 158.821 75.1527 158.821 76.5501C158.821 77.1744 158.821 77.7987 158.821 78.4231C158.821 78.433 158.821 78.4429 158.821 78.4528C158.811 78.7204 158.885 78.9879 159.045 79.2258C159.088 79.2951 159.141 79.3546 159.195 79.4141C159.216 79.424 159.227 79.4438 159.237 79.4537C159.248 79.4636 159.248 79.4735 159.259 79.4735C159.568 79.8006 160.016 80.0186 160.497 79.9988C160.561 79.9988 160.635 79.9888 160.699 79.9789C160.923 79.9591 161.137 79.8898 161.34 79.7807C163.025 78.9186 164.701 78.0564 166.387 77.1843C169.044 75.8167 171.701 74.4392 174.358 73.0716C174.977 72.7545 175.585 72.4374 176.193 72.1302C177.271 71.5653 177.271 69.9797 176.182 69.4148ZM55.6792 72.0113C55.5725 72.2293 55.4551 72.4374 55.3058 72.6356C55.2738 72.6752 55.2524 72.7149 55.2204 72.7545C55.1244 72.8536 55.0283 72.9626 54.9216 73.0617C54.8149 73.1509 54.7189 73.2401 54.6015 73.3293C54.5588 73.359 54.5161 73.3888 54.4734 73.4185C54.26 73.5572 54.036 73.6662 53.8012 73.7653C53.5238 73.8644 53.2463 73.9338 52.9476 73.9834C52.6381 74.0131 52.3287 74.0131 52.0192 73.9834C51.7311 73.9338 51.443 73.8644 51.1656 73.7653C50.9415 73.6662 50.7067 73.5572 50.4933 73.4185C50.4506 73.3987 50.408 73.3689 50.3759 73.3392C50.2586 73.25 50.1519 73.1608 50.0452 73.0617C49.9491 72.9626 49.8531 72.8635 49.757 72.7644C49.725 72.7248 49.693 72.6851 49.661 72.6455C49.5223 72.4374 49.3942 72.2293 49.2875 72.0113C49.1915 71.7536 49.1168 71.486 49.0635 71.2185C49.0314 70.9212 49.0314 70.6338 49.0635 70.3365C49.1168 70.0689 49.1915 69.8013 49.2875 69.5437C49.3942 69.3256 49.5223 69.1076 49.661 68.9094C49.693 68.8797 49.7144 68.8401 49.7464 68.8004C49.8531 68.6914 49.9384 68.5923 50.0452 68.4932C50.1519 68.3941 50.2586 68.3049 50.3653 68.2256C50.408 68.1959 50.4506 68.1662 50.4933 68.1364C50.7067 67.9977 50.9308 67.8887 51.1656 67.7797C51.443 67.6905 51.7311 67.6112 52.0192 67.5716C52.3287 67.5418 52.6381 67.5418 52.9476 67.5716C53.2463 67.6112 53.5238 67.6905 53.8012 67.7797C54.036 67.8887 54.26 67.9977 54.4734 68.1364C54.5161 68.1563 54.5588 68.186 54.6015 68.2157C54.7082 68.3049 54.8149 68.3941 54.9216 68.4932C55.0283 68.5824 55.1244 68.6815 55.2204 68.7905C55.2524 68.8301 55.2738 68.8698 55.3058 68.9094C55.4551 69.1076 55.5725 69.3256 55.6792 69.5437C55.7859 69.8013 55.8606 70.0689 55.914 70.3464C55.9247 70.4653 55.9353 70.5941 55.9353 70.723C55.9353 70.7428 55.9353 70.7626 55.9353 70.7824C55.9353 70.9212 55.9247 71.0698 55.914 71.2086C55.8606 71.486 55.7753 71.7437 55.6792 72.0113ZM94.7336 71.2086C94.6803 71.4761 94.5949 71.7437 94.4989 72.0113C94.3922 72.2293 94.2748 72.4374 94.1254 72.6356C94.0934 72.6752 94.0721 72.7149 94.0401 72.7545C93.944 72.8536 93.848 72.9626 93.7413 73.0617C93.6346 73.1509 93.5385 73.2401 93.4212 73.3293C93.3785 73.359 93.3358 73.3888 93.2931 73.4185C93.0797 73.5572 92.8556 73.6662 92.6209 73.7653C92.3434 73.8644 92.066 73.9338 91.7672 73.9834C91.4578 74.0131 91.1483 74.0131 90.8389 73.9834C90.5508 73.9338 90.2627 73.8644 89.9852 73.7653C89.7611 73.6662 89.5264 73.5572 89.3236 73.4185C89.281 73.3987 89.2383 73.3689 89.1956 73.3392C89.0889 73.25 88.9715 73.1608 88.8648 73.0617C88.7688 72.9626 88.6727 72.8635 88.5767 72.7644C88.5447 72.7248 88.5127 72.6851 88.4807 72.6455C88.3419 72.4374 88.2246 72.2293 88.1179 72.0113C88.0112 71.7536 87.9365 71.486 87.8831 71.2185C87.8511 70.9212 87.8511 70.6338 87.8831 70.3365C87.9365 70.0689 88.0112 69.8013 88.1179 69.5437C88.2246 69.3256 88.3419 69.1076 88.4807 68.9094C88.5127 68.8797 88.5447 68.8401 88.566 68.8004C88.6621 68.6914 88.7581 68.5923 88.8648 68.4932C88.9715 68.3941 89.0782 68.3049 89.1849 68.2256C89.2276 68.1959 89.2703 68.1662 89.313 68.1364C89.5264 67.9977 89.7505 67.8887 89.9852 67.7797C90.2627 67.6905 90.5401 67.6112 90.8389 67.5716C91.1483 67.5418 91.4578 67.5418 91.7672 67.5716C92.0553 67.6112 92.3434 67.6905 92.6209 67.7797C92.8556 67.8887 93.0797 67.9977 93.2931 68.1364C93.3358 68.1563 93.3785 68.186 93.4105 68.2157C93.5279 68.3049 93.6346 68.3941 93.7413 68.4932C93.8373 68.5824 93.9333 68.6815 94.0294 68.7905C94.0614 68.8301 94.0934 68.8698 94.1254 68.9094C94.2748 69.1076 94.3922 69.3256 94.4989 69.5437C94.5949 69.8013 94.6803 70.0689 94.7336 70.3464C94.7443 70.4653 94.7443 70.5941 94.755 70.723C94.755 70.7428 94.755 70.7626 94.755 70.7725C94.7443 70.9212 94.7443 71.0599 94.7336 71.2086ZM169.449 72.0113C167.016 73.2698 164.583 74.5185 162.161 75.7672C162.161 74.9248 162.161 74.0924 162.161 73.25C162.161 70.7626 162.161 68.2653 162.161 65.7778C162.993 66.2139 163.836 66.64 164.679 67.0761C167.07 68.3049 169.46 69.5437 171.85 70.7824C171.05 71.1887 170.249 71.595 169.449 72.0113Z" fill="#F5F5F5"/>
</svg>
